<?xml version="1.0" encoding="UTF-8"?>
<svg width="14px" height="15px" viewBox="0 0 14 15" version="1.1" xmlns="http://www.w3.org/2000/svg" xmlns:xlink="http://www.w3.org/1999/xlink">
    <!-- Generator: Sketch 52.1 (67048) - http://www.bohemiancoding.com/sketch -->
    <title>icon/查看他的网站-黑色</title>
    <desc>Created with Sketch.</desc>
    <g id="Page-1" stroke="none" stroke-width="1" fill="none" fill-rule="evenodd">
        <g id="2吸顶栏-查看他的网站入口" transform="translate(-1517.000000, -22.000000)" fill="#444444">
            <g id="icon/查看他的网站-黑色" transform="translate(1517.000000, 22.000000)">
                <g id="icon/查看他的网站">
                    <g id="Group" fill-rule="nonzero">
                        <path d="M2,1.4 C1.66862915,1.4 1.4,1.66862915 1.4,2 L1.4,9 C1.4,9.33137085 1.66862915,9.6 2,9.6 L12,9.6 C12.3313708,9.6 12.6,9.33137085 12.6,9 L12.6,2 C12.6,1.66862915 12.3313708,1.4 12,1.4 L2,1.4 Z M2,0 L12,0 C13.1045695,-2.02906125e-16 14,0.8954305 14,2 L14,9 C14,10.1045695 13.1045695,11 12,11 L2,11 C0.8954305,11 -9.09300413e-13,10.1045695 -9.09494702e-13,9 L-9.09494702e-13,2 C-9.09688991e-13,0.8954305 0.8954305,2.02906125e-16 2,0 Z" id="Rectangle"></path>
                        <path d="M1,14.2 C0.613400675,14.2 0.3,13.8865993 0.3,13.5 C0.3,13.1134007 0.613400675,12.8 1,12.8 L13,12.8 C13.3865993,12.8 13.7,13.1134007 13.7,13.5 C13.7,13.8865993 13.3865993,14.2 13,14.2 L1,14.2 Z" id="Path-156"></path>
                        <path d="M4,5.2 C3.61340068,5.2 3.3,4.88659932 3.3,4.5 C3.3,4.11340068 3.61340068,3.8 4,3.8 L7.30200195,3.8 C7.68860128,3.8 8.00200195,4.11340068 8.00200195,4.5 C8.00200195,4.88659932 7.68860128,5.2 7.30200195,5.2 L4,5.2 Z" id="Path"></path>
                    </g>
                </g>
            </g>
        </g>
    </g>
</svg>